<svg width="1352" height="310" viewBox="0 0 1352 310" fill="none" xmlns="http://www.w3.org/2000/svg">
<rect x="0.625" y="0.0163574" width="309.375" height="309.375" rx="100" fill="url(#paint0_linear)"/>
<path d="M200.016 73.1179C180.119 73.1179 164.858 84.3037 154.695 100.95C144.531 84.3007 129.269 73.1179 109.374 73.1179C93.9587 73.1179 79.8928 79.6248 69.7693 91.4397C60.2386 102.564 54.9893 117.419 54.9893 133.271C54.9893 150.507 61.4538 166.441 75.3329 183.418C87.5019 198.302 104.972 213.614 125.201 231.345C132.679 237.9 140.413 244.678 148.631 252.075C150.355 253.627 152.525 254.402 154.695 254.402C156.865 254.402 159.035 253.627 160.759 252.075C168.978 244.678 176.711 237.9 184.19 231.344C204.419 213.614 221.889 198.302 234.058 183.417C247.937 166.442 254.402 150.507 254.402 133.271C254.402 100.859 232.196 73.1179 200.016 73.1179Z" fill="url(#paint1_linear)"/>
<path d="M154.696 100.95C165.685 84.8377 180.119 73.1179 200.017 73.1179C232.196 73.1179 254.402 100.859 254.402 133.271C254.402 150.507 247.937 166.442 234.058 183.417C221.889 198.302 220.245 199.772 200.017 217.502C198.949 218.331 198.305 218.716 196.773 218.74C195.399 218.499 194.706 218.197 193.679 217.502C185.635 212.861 177.516 204.817 167.381 192.132C152.741 173.81 142.939 118.188 154.696 100.95Z" fill="url(#paint2_linear)"/>
<path d="M497 256.4C513.8 256.4 529.8 252 540.6 246V225.2C529 230.8 514.6 235.2 497 235.2C456.2 235.2 437 204.8 437 156C437 108 459.4 76.4001 499.8 76.4001C514.2 76.4001 526.2 80.0001 538.6 87.2001V66.0001C525.8 58.8001 512.6 55.6001 497 55.6001C445.8 55.6001 413.8 95.2001 413.8 156C413.8 216.8 441.8 256.4 497 256.4ZM747.734 234C737.734 234 730.934 229.2 730.934 215.6V125.2C730.934 84.8001 714.134 55.6001 662.934 55.6001C639.734 55.6001 619.334 61.2001 605.334 66.4001V88.4001C622.534 81.2001 640.534 76.4001 660.534 76.4001C698.134 76.4001 708.534 96.8001 708.534 122.4V142.4C694.934 138.8 681.734 136.8 669.334 136.8C625.734 136.8 593.734 157.2 593.734 198.8C593.734 239.2 623.334 256.4 654.934 256.4C677.334 256.4 698.134 248.4 711.734 230C715.734 247.2 726.534 253.6 741.734 253.6C746.134 253.6 750.934 252.8 755.334 251.6V232.8C752.934 233.6 750.134 234 747.734 234ZM658.134 236.4C634.134 236.4 616.934 222.8 616.934 197.6C616.934 169.2 640.134 156.8 672.934 156.8C684.134 156.8 696.134 158.4 708.534 162V206.8C698.134 226.4 680.934 236.4 658.134 236.4ZM887.953 256.4C904.753 256.4 920.753 252 931.553 246V225.2C919.953 230.8 905.553 235.2 887.953 235.2C847.153 235.2 827.953 204.8 827.953 156C827.953 108 850.353 76.4001 890.753 76.4001C905.153 76.4001 917.153 80.0001 929.553 87.2001V66.0001C916.753 58.8001 903.553 55.6001 887.953 55.6001C836.753 55.6001 804.753 95.2001 804.753 156C804.753 216.8 832.753 256.4 887.953 256.4ZM1138.69 234C1128.69 234 1121.89 229.2 1121.89 215.6V125.2C1121.89 84.8001 1105.09 55.6001 1053.89 55.6001C1030.69 55.6001 1010.29 61.2001 996.288 66.4001V88.4001C1013.49 81.2001 1031.49 76.4001 1051.49 76.4001C1089.09 76.4001 1099.49 96.8001 1099.49 122.4V142.4C1085.89 138.8 1072.69 136.8 1060.29 136.8C1016.69 136.8 984.688 157.2 984.688 198.8C984.688 239.2 1014.29 256.4 1045.89 256.4C1068.29 256.4 1089.09 248.4 1102.69 230C1106.69 247.2 1117.49 253.6 1132.69 253.6C1137.09 253.6 1141.89 252.8 1146.29 251.6V232.8C1143.89 233.6 1141.09 234 1138.69 234ZM1049.09 236.4C1025.09 236.4 1007.89 222.8 1007.89 197.6C1007.89 169.2 1031.09 156.8 1063.89 156.8C1075.09 156.8 1087.09 158.4 1099.49 162V206.8C1089.09 226.4 1071.89 236.4 1049.09 236.4ZM1273.71 55.6001C1223.71 55.6001 1195.71 93.2001 1195.71 156C1195.71 218.8 1223.71 256.4 1273.71 256.4C1324.11 256.4 1351.71 218.8 1351.71 156C1351.71 92.4001 1324.11 55.6001 1273.71 55.6001ZM1273.71 76.4001C1310.91 76.4001 1328.51 106.8 1328.51 156C1328.51 205.2 1310.91 235.2 1273.71 235.2C1236.91 235.2 1218.91 205.2 1218.91 156C1218.91 106.8 1236.91 76.4001 1273.71 76.4001Z" fill="url(#paint3_linear)"/>
<defs>
<linearGradient id="paint0_linear" x1="155.312" y1="309.391" x2="155.312" y2="0.0163574" gradientUnits="userSpaceOnUse">
<stop stop-color="#FD3A84"/>
<stop offset="1" stop-color="#FFA68D"/>
</linearGradient>
<linearGradient id="paint1_linear" x1="154.695" y1="254.402" x2="154.695" y2="73.1179" gradientUnits="userSpaceOnUse">
<stop stop-color="#FFC2CC"/>
<stop offset="1" stop-color="#FFF2F4"/>
</linearGradient>
<linearGradient id="paint2_linear" x1="201.94" y1="218.74" x2="201.94" y2="73.1179" gradientUnits="userSpaceOnUse">
<stop stop-color="#FFAFBC"/>
<stop offset="1" stop-color="#FFE7EA"/>
</linearGradient>
<linearGradient id="paint3_linear" x1="883" y1="340" x2="883" y2="-140" gradientUnits="userSpaceOnUse">
<stop stop-color="#FD3A84"/>
<stop offset="1" stop-color="#FFA68D"/>
</linearGradient>
</defs>
</svg>
